<svg xmlns="http://www.w3.org/2000/svg" xmlns:xlink="http://www.w3.org/1999/xlink" width="29" height="29"
     viewBox="0 0 29 29">
    <defs>
        <clipPath id="a">
            <path
                d="M8.856,27.86a14.509,14.509,0,0,1,0-26.721,14.5,14.5,0,0,1,15.9,23.613,14.515,14.515,0,0,1-15.9,3.108ZM.967,14.5A13.533,13.533,0,1,0,14.5.967,13.549,13.549,0,0,0,.967,14.5ZM13.9,19.967a.719.719,0,1,1,.719.713A.717.717,0,0,1,13.9,19.967Zm.24-2.144V9.037a.479.479,0,1,1,.958,0v8.787a.479.479,0,1,1-.958,0Z"
                fill="#d3d3d3"/>
        </clipPath>
    </defs>
    <g transform="translate(-944 -396)">
        <rect width="29" height="29" transform="translate(944 396)" fill="none"/>
        <g transform="translate(944 396)">
            <path
                d="M8.856,27.86a14.509,14.509,0,0,1,0-26.721,14.5,14.5,0,0,1,15.9,23.613,14.515,14.515,0,0,1-15.9,3.108ZM.967,14.5A13.533,13.533,0,1,0,14.5.967,13.549,13.549,0,0,0,.967,14.5ZM13.9,19.967a.719.719,0,1,1,.719.713A.717.717,0,0,1,13.9,19.967Zm.24-2.144V9.037a.479.479,0,1,1,.958,0v8.787a.479.479,0,1,1-.958,0Z"
                fill="#d3d3d3"/>
            <g clip-path="url(#a)">
                <rect width="29.24" height="29" fill="none"/>
                <rect width="29.24" height="29" fill="var(--ion-color-primary)"/>
            </g>
        </g>
    </g>
</svg>
