<svg xmlns="http://www.w3.org/2000/svg" width="44" height="43" viewBox="0 0 44 43">
    <g transform="translate(-867 -114)">
        <ellipse cx="22" cy="21.5" rx="22" ry="21.5" transform="translate(867 114)" fill="var(--ion-color-primary)"/>
        <g transform="translate(876 121)">
            <g transform="translate(0)">
                <path d="M.711.355A.355.355,0,1,1,.355,0,.355.355,0,0,1,.711.355Z" transform="translate(5.942 12.877)" fill="var(--ion-color-primary-contrast)"/>
                <path d="M.711.355A.355.355,0,1,1,.355,0,.355.355,0,0,1,.711.355Z" transform="translate(5.942 14.451)" fill="var(--ion-color-primary-contrast)"/>
                <path d="M.711.355A.355.355,0,1,1,.355,0,.355.355,0,0,1,.711.355Z"
                      transform="translate(13.254 12.877)" fill="var(--ion-color-primary-contrast)"/>
                <path d="M.711.355A.355.355,0,1,1,.355,0,.355.355,0,0,1,.711.355Z"
                      transform="translate(13.254 14.451)" fill="var(--ion-color-primary-contrast)"/>
                <path d="M.381,0a.381.381,0,0,0,0,.762H1.9A.381.381,0,0,0,1.9,0Z" transform="translate(6.319 9.333)"/>
                <path d="M.381.762H1.9A.381.381,0,0,0,1.9,0H.381a.381.381,0,0,0,0,.762Z"
                      transform="translate(11.295 9.333)" fill="var(--ion-color-primary-contrast)"/>
                <path
                    d="M5.958,26a4.77,4.77,0,0,1-4.764-4.672H1.143a1.143,1.143,0,0,1,0-2.285H3.4a2.963,2.963,0,0,1-.326-1.351v-.223a.381.381,0,0,1,.762,0v.223A2.209,2.209,0,0,0,4.3,19.043H15.61a2.207,2.207,0,0,0,.463-1.351V13.782a1.643,1.643,0,0,0-1.146-1.564l-.016-.005a1.637,1.637,0,0,0-.478-.071h-2.32v1.3a1.4,1.4,0,0,1-1.4,1.4h-.381v1.879h2.38a.762.762,0,0,0,.819-.686.381.381,0,1,1,.762,0,1.52,1.52,0,0,1-1.581,1.447H7.193a1.52,1.52,0,0,1-1.581-1.447.381.381,0,1,1,.762,0,.762.762,0,0,0,.819.686h2.38V14.832H9.192a1.4,1.4,0,0,1-1.4-1.4v-1.3H5.475A1.633,1.633,0,0,0,5,12.212l-.019.006a1.643,1.643,0,0,0-1.144,1.564v2.054a.381.381,0,0,1-.762,0v-.343H3a1.912,1.912,0,0,1-1.91-1.91V11.743A4.13,4.13,0,0,1,5,7.627a2.408,2.408,0,0,1,1.9-.934h3.912a.381.381,0,1,1,0,.762H6.907a1.652,1.652,0,0,0-1.65,1.65v2.284c.072-.007.145-.011.218-.011H7.9a1.4,1.4,0,0,1,1.29-.863h1.523a1.4,1.4,0,0,1,1.291.863h2.426c.074,0,.147,0,.219.011V9.105A1.652,1.652,0,0,0,13,7.455h-.563a.381.381,0,0,1,0-.762H13a2.409,2.409,0,0,1,1.9.934,4.131,4.131,0,0,1,3.91,4.116v1.839a1.912,1.912,0,0,1-1.91,1.91h-.07v2.2a2.963,2.963,0,0,1-.326,1.351h2.979a.381.381,0,0,1,0,.762H1.143a.381.381,0,0,0,0,.762H24.857a.381.381,0,0,0,0-.762H21.125a.381.381,0,1,1,0-.762h1.828v-6.5a1.345,1.345,0,0,1,0-2.581V2.48A1.183,1.183,0,0,0,21.771,1.3H20.146l-.815.815,1.234,1.234a1.143,1.143,0,0,1-1.616,1.616L15.935,1.951A1.143,1.143,0,0,1,17.551.335l1.241,1.241.926-.927a.381.381,0,0,1,.269-.112h1.783A1.945,1.945,0,0,1,23.715,2.48V9.961a1.345,1.345,0,0,1,0,2.581v6.5h1.143a1.143,1.143,0,0,1,0,2.285h-.051A4.708,4.708,0,0,1,20.1,26Z" fill="var(--ion-color-primary-contrast)"/>
                <path
                    d="M.381,1.009A.379.379,0,0,0,.65.9L.9.65A.381.381,0,0,0,.359.112L.112.359a.381.381,0,0,0,.269.65Z"
                    transform="translate(15.456 4.132)" fill="var(--ion-color-primary-contrast)"/>
                <path
                    d="M.381,1.1A.381.381,0,0,0,.744.836L.852.5A.381.381,0,1,0,.126.266L.018.606a.381.381,0,0,0,.363.5Z"
                    transform="translate(17.099 5.412)" fill="var(--ion-color-primary-contrast)"/>
                <path
                    d="M.381.87A.376.376,0,0,0,.5.852L.836.744A.381.381,0,1,0,.606.018L.266.126A.381.381,0,0,0,.381.87Z"
                    transform="translate(14.083 2.628)" fill="var(--ion-color-primary-contrast)"/>
            </g>
        </g>
    </g>
</svg>
